# AST/ASF file generated using VICON BodyLanguage
# -----------------------------------------------
:version 1.10
:name VICON
:units
  mass 1.0
  length 0.45
  angle deg
:documentation
   .ast/.asf automatically generated from VICON data using
   VICON BodyBuilder and BodyLanguage model FoxedUp or BRILLIANT.MOD
:root
   order TX TY TZ RX RY RZ
   axis XYZ
   position 0 0 0  
   orientation 0 0 0 
:bonedata
  begin
     id 1 
     name lhipjoint
     direction 0.624716 -0.669793 0.401383 
     length 2.38238 
     axis 0 0 0  XYZ
  end
  begin
     id 2 
     name lfemur
     direction 0.34202 -0.939693 0  
     length 6.4574  
     axis 0 0 20  XYZ
    dof rx ry rz
    limits (-160.0 20.0)
           (-70.0 70.0)
           (-60.0 70.0)
  end
  begin
     id 3 
     name ltibia
     direction 0.34202 -0.939693 0   
     length 7.68739   
     axis 0 0 20   XYZ
    dof rx
    limits (-10.0 170.0)
  end
  begin
     id 4 
     name lfoot
     direction 0.0681309 -0.187188 0.979959   
     length 2.46615   
     axis -90 7.62852e-016 20   XYZ
    dof rx rz
    limits (-45.0 90.0)
           (-70.0 20.0)
  end
  begin
     id 5 
     name ltoes
     direction 1.53566e-011 -4.21819e-011 1   
     length 1.2376   
     axis -90 7.62852e-016 20   XYZ
    dof rx
    limits (-90.0 20.0)
  end
  begin
     id 6 
     name rhipjoint
     direction -0.644473 -0.655875 0.393043   
     length 2.43293  
     axis 0 0 0  XYZ 
  end
  begin
     id 7 
     name rfemur
     direction -0.34202 -0.939693 0   
     length 6.7025   
     axis 0 0 -20   XYZ
    dof rx ry rz
    limits (-160.0 20.0)
           (-70.0 70.0)
           (-70.0 60.0)
  end
  begin
     id 8 
     name rtibia
     direction -0.34202 -0.939693 0   
     length 7.80547   
     axis 0 0 -20   XYZ
    dof rx
    limits (-10.0 170.0)
 end
 begin
     id 9 
     name rfoot
     direction -0.0756734 -0.207911 0.975216   
     length 2.40315  
     axis -90 -7.62852e-016 -20   XYZ
    dof rx rz
    limits (-45.0 90.0)
           (-20.0 70.0)
  end
  begin
     id 10 
     name rtoes
     direction -1.5353e-011 -4.21879e-011 1   
     length 1.20477   
     axis -90 -7.62852e-016 -20   XYZ
    dof rx
    limits (-90.0 20.0)
  end
  begin
     id 11 
     name lowerback
     direction 0.0160353 0.987463 -0.157037   
     length 2.18572   
     axis 0 0 0   XYZ
    dof rx ry rz
    limits (-20.0 45.0)
           (-30.0 30.0)
           (-30.0 30.0)
  end
  begin
     id 12 
     name upperback
     direction -0.00499661 0.999756 0.0215076   
     length 2.18016   
     axis 0 0 0   XYZ
    dof rx ry rz
    limits (-20.0 45.0)
           (-30.0 30.0)
           (-30.0 30.0)
  end
  begin
     id 13 
     name thorax
     direction -0.00921346 0.995333 0.0960619   
     length 2.24923   
     axis 0 0 0   XYZ
    dof rx ry rz
    limits (-20.0 45.0)
           (-30.0 30.0)
           (-30.0 30.0)
  end
  begin
     id 14 
     name lowerneck
     direction 0.0274184 0.991181 0.12965   
     length 1.70911   
     axis 0 0 0   XYZ
    dof rx ry rz
    limits (-20.0 45.0)
           (-30.0 30.0)
           (-30.0 30.0)
  end
  begin
     id 15 
     name upperneck
     direction 0.0015627 0.999959 -0.00893559   
     length 1.69312   
     axis 0 0 0   XYZ
    dof rx ry rz
    limits (-20.0 45.0)
           (-30.0 30.0)
           (-30.0 30.0)
  end
  begin
     id 16
     name head
     direction -0.00230242 0.999856 -0.0168327  
     length 1.80241  
     axis 0 0 0   XYZ
    dof rx ry rz
    limits (-20.0 45.0)
           (-30.0 30.0)
           (-30.0 30.0)
  end
  begin
     id 17 
     name lclavicle
     direction 0.955523 0.290741 -0.0494489  
     length 3.84275  
     axis 0 0 0   XYZ
    dof ry rz
    limits (-20.0 10.0)
           (0.0 20.0)
  end
  begin
     id 18 
     name lhumerus
     direction 1 -4.48967e-011 -3.18382e-028   
     length 5.17714   
     axis 180 -30 -90   XYZ
    dof rx ry rz
    limits (-60.0 90.0)
           (-90.0 90.0)
           (-90.0 90.0)
  end
  begin
     id 19
     name lradius
     direction 1 -4.48968e-011 -2.22911e-027   
     length 3.43679   
     axis 180 -30 -90   XYZ
    dof rx
    limits (-10.0 170.0)
  end
  begin
     id 20
     name lwrist
     direction 1 -4.48951e-011 -6.32245e-027   
     length 1.7184   
     axis 3.57107e-015 90 90   XYZ
    dof ry
    limits (-180.0 0.0)
 end
  begin
     id 21 
     name lhand
     direction 1 -4.48924e-011 -1.26431e-026   
     length 0.573117   
     axis 8.06912e-015 90 90   XYZ
    dof rx rz
    limits (-90.0 90.0)
           (-45.0 45.0)
  end
  begin
     id 22 
     name lfingers
     direction 1 -4.49001e-011 -2.52965e-026   
     length 0.462062   
     axis 1.61381e-014 90 90   XYZ
    dof rx
    limits (0.0 90.0)
  end
  begin
     id 23
     name lthumb
     direction 0.707107 -6.35008e-011 0.707107   
     length 0.663431   
     axis -90 45 -1.62303e-014   XYZ
    dof rx rz
    limits (-45.0 45.0)
           (-45.0 45.0)
  end
  begin
     id 24 
     name rclavicle
     direction -0.963917 0.256881 -0.0698287   
     length 3.73057  
     axis 0 0 0   XYZ 
    dof ry rz
    limits (-10.0 20.0)
           (-20.0 0.0)
  end
  begin
     id 25 
     name rhumerus
     direction -1 -4.48962e-011 -2.73982e-027  
     length 5.23908   
     axis 180 30 90   XYZ
    dof rx ry rz
    limits (-90.0 60.0)
           (-90.0 90.0)
           (-90.0 90.0)
  end
  begin
     id 26 
     name rradius
     direction -1 -4.48968e-011 -4.33218e-027   
     length 3.46485   
     axis 180 30 90   XYZ
    dof rx
    limits (-10.0 170.0)
  end
  begin
     id 27 
     name rwrist
     direction -1 -4.48989e-011 -6.32372e-027   
     length 1.73243   
     axis 3.57107e-015 -90 -90   XYZ
    dof ry
    limits (-180.0 0.0)
  end
  begin
     id 28
     name rhand
     direction -1 -4.48948e-011 -1.26448e-026   
     length 0.608752   
     axis 8.06912e-015 -90 -90   XYZ
    dof rx rz
    limits (-90.0 90.0)
           (-45.0 45.0)
  end
  begin
     id 29
     name rfingers
     direction -1 -4.48962e-011 -2.52913e-026   
     length 0.490792   
     axis 1.61381e-014 -90 -90   XYZ
    dof rx
    limits (0.0 90.0)
  end
  begin
     id 30
     name rthumb
     direction -0.707107 -6.34878e-011 0.707107   
     length 0.704682   
     axis -90 -45 1.62303e-014   XYZ
    dof rx rz
    limits (-45.0 45.0)
           (-45.0 45.0)
  end
:hierarchy
  begin
    root lhipjoint rhipjoint lowerback
    lhipjoint lfemur
    lfemur ltibia
    ltibia lfoot
    lfoot ltoes
    rhipjoint rfemur
    rfemur rtibia
    rtibia rfoot
    rfoot rtoes
    lowerback upperback
    upperback thorax
    thorax lowerneck lclavicle rclavicle
    lowerneck upperneck
    upperneck head
    lclavicle lhumerus
    lhumerus lradius
    lradius lwrist
    lwrist lhand lthumb
    lhand lfingers
    rclavicle rhumerus
    rhumerus rradius
    rradius rwrist
    rwrist rhand rthumb
    rhand rfingers
  end

#!OML:ASF G:\JayActor3\Patient Classification 1\Patient 1\Session 6\male.ASF
:FULLY-SPECIFIED
:DEGREES
480
root 2.0534 16.5537 -8.15608 15.401 -45.9799 -13.7918
lowerback 0.273357 -2.02718 2.14526
upperback -1.24105 -2.71958 -2.14581
thorax -1.63162 -1.4064 -3.35715
lowerneck 3.52907 -12.9917 -9.44596
upperneck -14.8956 -16.4179 21.5614
head -2.19636 -9.0253 8.29555
rclavicle -6.08281e-014 1.59028e-015
rhumerus -88.9306 32.1895 -122.853
rradius 81.4488
rwrist 18.2786
rhand -59.7208 37.16
rfingers 7.12502
rthumb -31.886 9.93121
lclavicle -6.08281e-014 1.59028e-015
lhumerus -90.5731 -36.7333 114.991
lradius 89.374
lwrist -6.72308
lhand -49.0148 -57.5369
lfingers 7.12502
lthumb -21.6433 -28.7265
rfemur -10.3363 -9.30624 37.3984
rtibia 21.9673
rfoot -21.5722 -7.30635
rtoes 1.24071
lfemur -30.1988 10.8526 -2.01402
ltibia 48.1454
lfoot -6.67968 -6.16408
ltoes -4.17626
481
root 2.04882 16.5571 -8.1674 15.3518 -45.0609 -13.7645
lowerback 0.387662 -2.03958 2.26184
upperback -1.15477 -2.73061 -2.07683
thorax -1.61006 -1.4108 -3.34871
lowerneck 3.7515 -13.2587 -9.51131
upperneck -15.1914 -16.7432 22.0527
head -2.20982 -9.23329 8.46771
rclavicle -2.22639e-014 2.38542e-014
rhumerus -89.0659 32.5052 -123.124
rradius 81.3611
rwrist 18.2254
rhand -59.745 37.3657
rfingers 7.12502
rthumb -31.9091 10.1415
lclavicle -2.22639e-014 2.38542e-014
lhumerus -90.3352 -36.6585 114.861
lradius 89.2599
lwrist -6.49895
lhand -48.7981 -57.7356
lfingers 7.12502
lthumb -21.4351 -28.9014
rfemur -10.2904 -10.2741 37.6432
rtibia 21.5584
rfoot -21.3749 -7.15329
rtoes 1.46924
lfemur -31.1916 11.3485 -2.18312
ltibia 49.1887
lfoot -6.54065 -6.2404
ltoes -4.82904
482
root 2.04334 16.5611 -8.17767 15.3037 -44.1388 -13.7483
lowerback 0.492619 -2.05783 2.38
upperback -1.06525 -2.74933 -2.00017
thorax -1.58022 -1.41881 -3.33348
lowerneck 3.95769 -13.5165 -9.57308
upperneck -15.4653 -17.0575 22.5269
head -2.21595 -9.43431 8.63194
rclavicle -4.96962e-016 7.95139e-015
rhumerus -89.2107 32.8422 -123.409
rradius 81.2699
rwrist 18.1516
rhand -59.8133 37.6238
rfingers 7.12502
rthumb -31.974 10.4127
lclavicle -4.96962e-016 7.95139e-015
lhumerus -90.0706 -36.5638 114.713
lradius 89.1294
lwrist -6.31778
lhand -48.629 -57.8947
lfingers 7.12502
lthumb -21.2727 -29.0422
rfemur -10.2129 -11.2563 37.8933
rtibia 21.1114
rfoot -21.1888 -6.98945
rtoes 1.5791
lfemur -32.1617 11.8763 -2.35867
ltibia 50.2271
lfoot -6.44724 -6.15469
ltoes -5.3342
483
root 2.03751 16.566 -8.18665 15.2662 -43.2145 -13.7421
lowerback 0.586783 -2.0802 2.5103
upperback -0.981364 -2.77356 -1.92091
thorax -1.55104 -1.42977 -3.3225
lowerneck 4.1456 -13.7691 -9.6284
upperneck -15.7045 -17.368 22.9807
head -2.21042 -9.6312 8.78514
rclavicle 7.84206e-014 3.97569e-014
rhumerus -89.366 33.1826 -123.704
rradius 81.1742
rwrist 18.0799
rhand -59.9685 37.9032
rfingers 7.12502
rthumb -32.1219 10.7217
lclavicle 7.84206e-014 3.97569e-014
lhumerus -89.8037 -36.4499 114.564
lradius 88.9659
lwrist -6.2762
lhand -48.5974 -57.9081
lfingers 7.12502
lthumb -21.2424 -29.0521
rfemur -10.1109 -12.2325 38.1484
rtibia 20.6221
rfoot -21.0248 -6.82683
rtoes 1.56822
lfemur -33.1155 12.4142 -2.54178
ltibia 51.2517
lfoot -6.38749 -5.88415
ltoes -5.61738
484
root 2.03129 16.571 -8.19497 15.2252 -42.294 -13.7305
lowerback 0.682002 -2.10581 2.62899
upperback -0.90577 -2.80225 -1.83997
thorax -1.53069 -1.44307 -3.3029
lowerneck 4.32244 -14.0154 -9.6767
upperneck -15.9153 -17.6725 23.4159
head -2.19672 -9.82345 8.92887
rclavicle 1.30204e-014 2.06736e-014
rhumerus -89.5366 33.5188 -124
rradius 81.079
rwrist 18.0333
rhand -60.2165 38.1521
rfingers 7.12502
rthumb -32.358 11.0186
lclavicle 1.30204e-014 2.06736e-014
lhumerus -89.5324 -36.3165 114.413
lradius 88.7794
lwrist -6.33399
lhand -48.656 -57.782
lfingers 7.12502
lthumb -21.2986 -28.9324
rfemur -9.98571 -13.1595 38.3989
rtibia 20.0998
rfoot -20.8992 -6.69668
rtoes 1.46598
lfemur -34.0504 12.9355 -2.74825
ltibia 52.2496
lfoot -6.37183 -5.39037
ltoes -5.95073
485
root 2.02413 16.5765 -8.20162 15.1862 -41.3554 -13.7348
lowerback 0.777934 -2.13983 2.76842
upperback -0.836586 -2.84176 -1.75572
thorax -1.51908 -1.4622 -3.291
lowerneck 4.49126 -14.2569 -9.71754
upperneck -16.0976 -17.9738 23.8314
head -2.17528 -10.0122 9.06265
rclavicle 9.46215e-014 -1.59028e-015
rhumerus -89.7201 33.8378 -124.282
rradius 80.9955
rwrist 18.0067
rhand -60.5245 38.3965
rfingers 7.12502
rthumb -32.651 11.3233
lclavicle 9.46215e-014 -1.59028e-015
lhumerus -89.2722 -36.1651 114.268
lradius 88.582
lwrist -6.46185
lhand -48.7521 -57.5103
lfingers 7.12502
lthumb -21.3909 -28.6711
rfemur -9.828 -14.084 38.6606
rtibia 19.5466
rfoot -20.8038 -6.57771
rtoes 1.26112
lfemur -34.9553 13.412 -2.9533
ltibia 53.2151
lfoot -6.39063 -4.69553
ltoes -6.28837
486
root 2.01567 16.582 -8.20724 15.1192 -40.4154 -13.7217
lowerback 0.888358 -2.18138 2.8863
upperback -0.773062 -2.89122 -1.67262
thorax -1.52124 -1.4864 -3.26709
lowerneck 4.6483 -14.4932 -9.75173
upperneck -16.2497 -18.2714 24.229
head -2.14493 -10.1971 9.18666
rclavicle 2.29596e-014 2.38542e-014
rhumerus -89.9202 34.1432 -124.546
rradius 80.9296
rwrist 18.0028
rhand -60.8304 38.5931
rfingers 7.12502
rthumb -32.942 11.5807
lclavicle 2.29596e-014 2.38542e-014
lhumerus -89.0213 -35.9886 114.126
lradius 88.3851
lwrist -6.62422
lhand -48.8326 -57.1196
lfingers 7.12502
lthumb -21.4682 -28.2892
rfemur -9.6329 -14.9658 38.9053
rtibia 18.9683
rfoot -20.735 -6.4975
rtoes 1.07768
lfemur -35.8145 13.8368 -3.18163
ltibia 54.1356
lfoot -6.43151 -3.81772
ltoes -6.60645
